<?xml version="1.0" encoding="UTF-8"?>
<svg xmlns="http://www.w3.org/2000/svg" xmlns:xlink="http://www.w3.org/1999/xlink" width="2381.104pt" height="3163.464pt" viewBox="0 0 2381.104 3163.464" version="1.2">
<defs>
<clipPath id="clip1">
  <path d="M 1717 617 L 2159.566406 617 L 2159.566406 770 L 1717 770 Z M 1717 617 "/>
</clipPath>
<clipPath id="clip2">
  <path d="M 1717 865 L 2159.566406 865 L 2159.566406 988 L 1717 988 Z M 1717 865 "/>
</clipPath>
<clipPath id="clip3">
  <path d="M 1717 1290 L 2159.566406 1290 L 2159.566406 1457 L 1717 1457 Z M 1717 1290 "/>
</clipPath>
</defs>
<g id="surface44">
<path style=" stroke:none;fill-rule:nonzero;fill:rgb(78.514099%,27.806091%,16.308594%);fill-opacity:1;" d="M 147.398438 172.503906 L 2233.699219 172.503906 L 2233.699219 85.039062 L 147.398438 85.039062 Z M 147.398438 172.503906 "/>
<path style=" stroke:none;fill-rule:nonzero;fill:rgb(100%,100%,100%);fill-opacity:1;" d="M 1224.035156 346.546875 L 1612.035156 346.546875 L 1612.035156 222.746094 L 1224.035156 222.746094 Z M 1224.035156 346.546875 "/>
<path style="fill:none;stroke-width:2.5;stroke-linecap:butt;stroke-linejoin:miter;stroke:rgb(0%,0%,0%);stroke-opacity:1;stroke-miterlimit:4;" d="M 3061.25 7042.41 L 4031.25 7042.41 L 4031.25 7352.41 L 3061.25 7352.41 Z M 3061.25 7042.41 " transform="matrix(0.4,0,0,-0.4,0,3163.464)"/>
<path style=" stroke:none;fill-rule:nonzero;fill:rgb(100%,100%,100%);fill-opacity:1;" d="M 937.371094 532.542969 L 1403.964844 532.542969 L 1403.964844 426.742188 L 937.371094 426.742188 Z M 937.371094 532.542969 "/>
<path style="fill:none;stroke-width:2.5;stroke-linecap:butt;stroke-linejoin:miter;stroke:rgb(0%,0%,0%);stroke-opacity:1;stroke-miterlimit:4;" d="M 2343.75 6577.41 L 3508.75 6577.41 L 3508.75 6842.41 L 2343.75 6842.41 Z M 2343.75 6577.41 " transform="matrix(0.4,0,0,-0.4,0,3163.464)"/>
<path style=" stroke:none;fill-rule:nonzero;fill:rgb(100%,100%,100%);fill-opacity:1;" d="M 717.734375 346.546875 L 1115.734375 346.546875 L 1115.734375 222.746094 L 717.734375 222.746094 Z M 717.734375 346.546875 "/>
<path style="fill:none;stroke-width:2.5;stroke-linecap:butt;stroke-linejoin:miter;stroke:rgb(0%,0%,0%);stroke-opacity:1;stroke-miterlimit:4;" d="M 1793.75 7042.41 L 2788.75 7042.41 L 2788.75 7352.41 L 1793.75 7352.41 Z M 1793.75 7042.41 " transform="matrix(0.4,0,0,-0.4,0,3163.464)"/>
<path style=" stroke:none;fill-rule:nonzero;fill:rgb(100%,100%,100%);fill-opacity:1;" d="M 208.40625 771.214844 L 610.40625 771.214844 L 610.40625 615.085938 L 208.40625 615.085938 Z M 208.40625 771.214844 "/>
<path style="fill:none;stroke-width:2.5;stroke-linecap:butt;stroke-linejoin:miter;stroke:rgb(0%,0%,0%);stroke-opacity:1;stroke-miterlimit:4;" d="M 521.25 5979.91 L 1526.25 5979.91 L 1526.25 6369.91 L 521.25 6369.91 Z M 521.25 5979.91 " transform="matrix(0.4,0,0,-0.4,0,3163.464)"/>
<path style=" stroke:none;fill-rule:nonzero;fill:rgb(100%,100%,100%);fill-opacity:1;" d="M 208.40625 988.546875 L 610.40625 988.546875 L 610.40625 864.414062 L 208.40625 864.414062 Z M 208.40625 988.546875 "/>
<path style="fill:none;stroke-width:2.5;stroke-linecap:butt;stroke-linejoin:miter;stroke:rgb(0%,0%,0%);stroke-opacity:1;stroke-miterlimit:4;" d="M 521.25 5437.41 L 1526.25 5437.41 L 1526.25 5747.41 L 521.25 5747.41 Z M 521.25 5437.41 " transform="matrix(0.4,0,0,-0.4,0,3163.464)"/>
<path style=" stroke:none;fill-rule:nonzero;fill:rgb(100%,100%,100%);fill-opacity:1;" d="M 714.070312 773.214844 L 1115.402344 773.214844 L 1115.402344 617.085938 L 714.070312 617.085938 Z M 714.070312 773.214844 "/>
<path style="fill:none;stroke-width:2.5;stroke-linecap:butt;stroke-linejoin:miter;stroke:rgb(0%,0%,0%);stroke-opacity:1;stroke-miterlimit:4;" d="M 1786.25 5974.91 L 2788.75 5974.91 L 2788.75 6364.91 L 1786.25 6364.91 Z M 1786.25 5974.91 " transform="matrix(0.4,0,0,-0.4,0,3163.464)"/>
<path style=" stroke:none;fill-rule:nonzero;fill:rgb(100%,100%,100%);fill-opacity:1;" d="M 714.070312 989.078125 L 1115.402344 989.078125 L 1115.402344 866.28125 L 714.070312 866.28125 Z M 714.070312 989.078125 "/>
<path style="fill:none;stroke-width:2.5;stroke-linecap:butt;stroke-linejoin:miter;stroke:rgb(0%,0%,0%);stroke-opacity:1;stroke-miterlimit:4;" d="M 1786.25 5434.91 L 2788.75 5434.91 L 2788.75 5742.41 L 1786.25 5742.41 Z M 1786.25 5434.91 " transform="matrix(0.4,0,0,-0.4,0,3163.464)"/>
<path style=" stroke:none;fill-rule:nonzero;fill:rgb(100%,100%,100%);fill-opacity:1;" d="M 1224.402344 1101.878906 L 1609.734375 1101.878906 L 1609.734375 979.078125 L 1224.402344 979.078125 Z M 1224.402344 1101.878906 "/>
<path style="fill:none;stroke-width:2.5;stroke-linecap:butt;stroke-linejoin:miter;stroke:rgb(0%,0%,0%);stroke-opacity:1;stroke-miterlimit:4;" d="M 3061.25 5154.91 L 4023.75 5154.91 L 4023.75 5459.91 L 3061.25 5459.91 Z M 3061.25 5154.91 " transform="matrix(0.4,0,0,-0.4,0,3163.464)"/>
<path style=" stroke:none;fill-rule:nonzero;fill:rgb(100%,100%,100%);fill-opacity:1;" d="M 714.070312 1199.546875 L 1115.402344 1199.546875 L 1115.402344 1076.746094 L 714.070312 1076.746094 Z M 714.070312 1199.546875 "/>
<path style="fill:none;stroke-width:2.5;stroke-linecap:butt;stroke-linejoin:miter;stroke:rgb(0%,0%,0%);stroke-opacity:1;stroke-miterlimit:4;" d="M 1786.25 4909.91 L 2788.75 4909.91 L 2788.75 5217.41 L 1786.25 5217.41 Z M 1786.25 4909.91 " transform="matrix(0.4,0,0,-0.4,0,3163.464)"/>
<path style=" stroke:none;fill-rule:nonzero;fill:rgb(100%,100%,100%);fill-opacity:1;" d="M 207.234375 1455.878906 L 609.230469 1455.878906 L 609.230469 1289.75 L 207.234375 1289.75 Z M 207.234375 1455.878906 "/>
<path style="fill:none;stroke-width:2.5;stroke-linecap:butt;stroke-linejoin:miter;stroke:rgb(0%,0%,0%);stroke-opacity:1;stroke-miterlimit:4;" d="M 518.75 4269.91 L 1523.75 4269.91 L 1523.75 4684.91 L 518.75 4684.91 Z M 518.75 4269.91 " transform="matrix(0.4,0,0,-0.4,0,3163.464)"/>
<path style=" stroke:none;fill-rule:nonzero;fill:rgb(100%,100%,100%);fill-opacity:1;" d="M 1223.734375 773.214844 L 1610.070312 773.214844 L 1610.070312 617.085938 L 1223.734375 617.085938 Z M 1223.734375 773.214844 "/>
<path style="fill:none;stroke-width:2.5;stroke-linecap:butt;stroke-linejoin:miter;stroke:rgb(0%,0%,0%);stroke-opacity:1;stroke-miterlimit:4;" d="M 3058.75 5974.91 L 4026.25 5974.91 L 4026.25 6364.91 L 3058.75 6364.91 Z M 3058.75 5974.91 " transform="matrix(0.4,0,0,-0.4,0,3163.464)"/>
<path style=" stroke:none;fill-rule:nonzero;fill:rgb(100%,100%,100%);fill-opacity:1;" d="M 1717.398438 769.878906 L 2159.066406 769.878906 L 2159.066406 617.078125 L 1717.398438 617.078125 Z M 1717.398438 769.878906 "/>
<g clip-path="url(#clip1)" clip-rule="nonzero">
<path style="fill:none;stroke-width:2.5;stroke-linecap:butt;stroke-linejoin:miter;stroke:rgb(0%,0%,0%);stroke-opacity:1;stroke-miterlimit:4;" d="M 4293.75 5984.91 L 5398.75 5984.91 L 5398.75 6364.91 L 4293.75 6364.91 Z M 4293.75 5984.91 " transform="matrix(0.4,0,0,-0.4,0,3163.464)"/>
</g>
<path style=" stroke:none;fill-rule:nonzero;fill:rgb(100%,100%,100%);fill-opacity:1;" d="M 1717.398438 987.847656 L 2159.066406 987.847656 L 2159.066406 865.046875 L 1717.398438 865.046875 Z M 1717.398438 987.847656 "/>
<g clip-path="url(#clip2)" clip-rule="nonzero">
<path style="fill:none;stroke-width:2.5;stroke-linecap:butt;stroke-linejoin:miter;stroke:rgb(0%,0%,0%);stroke-opacity:1;stroke-miterlimit:4;" d="M 4293.75 5439.91 L 5398.75 5439.91 L 5398.75 5744.91 L 4293.75 5744.91 Z M 4293.75 5439.91 " transform="matrix(0.4,0,0,-0.4,0,3163.464)"/>
</g>
<path style=" stroke:none;fill-rule:nonzero;fill:rgb(100%,100%,100%);fill-opacity:1;" d="M 1717.398438 1199.214844 L 2155.066406 1199.214844 L 2155.066406 1075.414062 L 1717.398438 1075.414062 Z M 1717.398438 1199.214844 "/>
<path style="fill:none;stroke-width:2.5;stroke-linecap:butt;stroke-linejoin:miter;stroke:rgb(0%,0%,0%);stroke-opacity:1;stroke-miterlimit:4;" d="M 4293.75 4909.91 L 5388.75 4909.91 L 5388.75 5219.91 L 4293.75 5219.91 Z M 4293.75 4909.91 " transform="matrix(0.4,0,0,-0.4,0,3163.464)"/>
<path style=" stroke:none;fill-rule:nonzero;fill:rgb(100%,100%,100%);fill-opacity:1;" d="M 1717.398438 1456.542969 L 2159.066406 1456.542969 L 2159.066406 1290.414062 L 1717.398438 1290.414062 Z M 1717.398438 1456.542969 "/>
<g clip-path="url(#clip3)" clip-rule="nonzero">
<path style="fill:none;stroke-width:2.5;stroke-linecap:butt;stroke-linejoin:miter;stroke:rgb(0%,0%,0%);stroke-opacity:1;stroke-miterlimit:4;" d="M 4293.75 4267.41 L 5398.75 4267.41 L 5398.75 4682.41 L 4293.75 4682.41 Z M 4293.75 4267.41 " transform="matrix(0.4,0,0,-0.4,0,3163.464)"/>
</g>
<path style=" stroke:none;fill-rule:nonzero;fill:rgb(100%,100%,100%);fill-opacity:1;" d="M 717.066406 1456.546875 L 1611.066406 1456.546875 L 1611.066406 1287.746094 L 717.066406 1287.746094 Z M 717.066406 1456.546875 "/>
<path style="fill:none;stroke-width:2.5;stroke-linecap:butt;stroke-linejoin:miter;stroke:rgb(0%,0%,0%);stroke-opacity:1;stroke-miterlimit:4;" d="M 1793.75 4267.41 L 4028.75 4267.41 L 4028.75 4689.91 L 1793.75 4689.91 Z M 1793.75 4267.41 " transform="matrix(0.4,0,0,-0.4,0,3163.464)"/>
<path style="fill:none;stroke-width:5;stroke-linecap:butt;stroke-linejoin:miter;stroke:rgb(71.484375%,4.299927%,22.705078%);stroke-opacity:1;stroke-miterlimit:10;" d="M 4360.996094 5988.962734 L 4360.996094 5863.962734 L 2719.335938 5863.962734 L 2719.335938 5973.962734 M 1189.335938 5977.292812 L 1189.335938 5774.763516 " transform="matrix(0.4,0,0,-0.4,0,3163.464)"/>
<path style=" stroke:none;fill-rule:nonzero;fill:rgb(71.484375%,4.299927%,22.705078%);fill-opacity:1;" d="M 475.734375 863.210938 C 474.050781 858.667969 471.171875 853.035156 468.128906 849.539062 L 475.734375 852.292969 L 483.34375 849.539062 C 480.296875 853.035156 477.421875 858.667969 475.734375 863.210938 "/>
<path style="fill:none;stroke-width:5;stroke-linecap:butt;stroke-linejoin:miter;stroke:rgb(71.484375%,4.299927%,22.705078%);stroke-opacity:1;stroke-miterlimit:10;" d="M 4028.505859 6247.292812 L 4269.365234 6247.292812 " transform="matrix(0.4,0,0,-0.4,0,3163.464)"/>
<path style=" stroke:none;fill-rule:nonzero;fill:rgb(71.484375%,4.299927%,22.705078%);fill-opacity:1;" d="M 1717.402344 664.546875 C 1712.855469 666.230469 1707.222656 669.113281 1703.726562 672.15625 L 1706.480469 664.546875 L 1703.726562 656.941406 C 1707.222656 659.988281 1712.855469 662.863281 1717.402344 664.546875 "/>
<path style="fill:none;stroke-width:5;stroke-linecap:butt;stroke-linejoin:miter;stroke:rgb(0%,0%,0%);stroke-opacity:1;stroke-miterlimit:10;" d="M 1189.335938 5435.632656 L 1189.335938 4714.089687 " transform="matrix(0.4,0,0,-0.4,0,3163.464)"/>
<path style=" stroke:none;fill-rule:nonzero;fill:rgb(0%,0%,0%);fill-opacity:1;" d="M 475.734375 1287.484375 C 474.050781 1282.941406 471.171875 1277.304688 468.128906 1273.808594 L 475.734375 1276.558594 L 483.34375 1273.808594 C 480.296875 1277.304688 477.421875 1282.941406 475.734375 1287.484375 "/>
<path style="fill:none;stroke-width:5;stroke-linecap:butt;stroke-linejoin:miter;stroke:rgb(0%,0%,0%);stroke-opacity:1;stroke-miterlimit:10;" d="M 2430.146484 5974.382656 L 2430.146484 5774.353359 " transform="matrix(0.4,0,0,-0.4,0,3163.464)"/>
<path style=" stroke:none;fill-rule:nonzero;fill:rgb(0%,0%,0%);fill-opacity:1;" d="M 972.058594 863.382812 C 970.375 858.835938 967.496094 853.203125 964.453125 849.707031 L 972.058594 852.460938 L 979.667969 849.707031 C 976.621094 853.203125 973.742188 858.835938 972.058594 863.382812 "/>
<path style="fill:none;stroke-width:5;stroke-linecap:butt;stroke-linejoin:miter;stroke:rgb(0%,0%,0%);stroke-opacity:1;stroke-miterlimit:10;" d="M 2430.146484 5437.292812 L 2430.146484 5242.927578 " transform="matrix(0.4,0,0,-0.4,0,3163.464)"/>
<path style=" stroke:none;fill-rule:nonzero;fill:rgb(0%,0%,0%);fill-opacity:1;" d="M 972.058594 1075.949219 C 970.375 1071.402344 967.496094 1065.769531 964.453125 1062.273438 L 972.058594 1065.023438 L 979.667969 1062.273438 C 976.621094 1065.769531 973.742188 1071.402344 972.058594 1075.949219 "/>
<path style="fill:none;stroke-width:5;stroke-linecap:butt;stroke-linejoin:miter;stroke:rgb(0%,0%,0%);stroke-opacity:1;stroke-miterlimit:10;" d="M 4836.572266 5437.292812 L 4836.572266 5251.433437 " transform="matrix(0.4,0,0,-0.4,0,3163.464)"/>
<path style=" stroke:none;fill-rule:nonzero;fill:rgb(0%,0%,0%);fill-opacity:1;" d="M 1934.628906 1072.546875 C 1932.941406 1068.003906 1930.058594 1062.367188 1927.015625 1058.871094 L 1934.628906 1061.625 L 1942.230469 1058.871094 C 1939.183594 1062.367188 1936.3125 1068.003906 1934.628906 1072.546875 "/>
<path style="fill:none;stroke-width:5;stroke-linecap:butt;stroke-linejoin:miter;stroke:rgb(52.539062%,52.539062%,52.539062%);stroke-opacity:1;stroke-miterlimit:10;" d="M 2430.146484 4908.210781 L 2430.146484 4717.351406 " transform="matrix(0.4,0,0,-0.4,0,3163.464)"/>
<path style=" stroke:none;fill-rule:nonzero;fill:rgb(52.539062%,52.539062%,52.539062%);fill-opacity:1;" d="M 972.058594 1286.179688 C 970.375 1281.636719 967.496094 1276 964.453125 1272.503906 L 972.058594 1275.257812 L 979.667969 1272.503906 C 976.621094 1276 973.742188 1281.636719 972.058594 1286.179688 "/>
<path style="fill:none;stroke-width:5;stroke-linecap:butt;stroke-linejoin:miter;stroke:rgb(52.539062%,52.539062%,52.539062%);stroke-opacity:1;stroke-miterlimit:10;" d="M 3695.15625 5153.962734 L 3695.15625 4713.103359 " transform="matrix(0.4,0,0,-0.4,0,3163.464)"/>
<path style=" stroke:none;fill-rule:nonzero;fill:rgb(52.539062%,52.539062%,52.539062%);fill-opacity:1;" d="M 1478.0625 1287.878906 C 1476.375 1283.335938 1473.496094 1277.699219 1470.457031 1274.203125 L 1478.0625 1276.957031 L 1485.667969 1274.203125 C 1482.625 1277.699219 1479.746094 1283.335938 1478.0625 1287.878906 "/>
<path style="fill:none;stroke-width:5;stroke-linecap:butt;stroke-linejoin:miter;stroke:rgb(71.484375%,4.299927%,22.705078%);stroke-opacity:1;stroke-miterlimit:10;" d="M 3695.15625 5973.962734 L 3695.15625 5493.103359 " transform="matrix(0.4,0,0,-0.4,0,3163.464)"/>
<path style=" stroke:none;fill-rule:nonzero;fill:rgb(71.484375%,4.299927%,22.705078%);fill-opacity:1;" d="M 1478.0625 975.878906 C 1476.375 971.335938 1473.496094 965.699219 1470.457031 962.203125 L 1478.0625 964.957031 L 1485.667969 962.203125 C 1482.625 965.699219 1479.746094 971.335938 1478.0625 975.878906 "/>
<path style="fill:none;stroke-width:5;stroke-linecap:butt;stroke-linejoin:miter;stroke:rgb(71.484375%,4.299927%,22.705078%);stroke-opacity:1;stroke-miterlimit:10;" d="M 528.59375 4153.962734 L 707.792969 4153.962734 " transform="matrix(0.4,0,0,-0.4,0,3163.464)"/>
<path style=" stroke:none;fill-rule:nonzero;fill:rgb(71.484375%,4.299927%,22.705078%);fill-opacity:1;" d="M 292.773438 1501.878906 C 288.230469 1503.5625 282.59375 1506.445312 279.097656 1509.488281 L 281.851562 1501.878906 L 279.097656 1494.273438 C 282.59375 1497.320312 288.230469 1500.195312 292.773438 1501.878906 "/>
<path style="fill:none;stroke-width:5;stroke-linecap:butt;stroke-linejoin:miter;stroke:rgb(0%,0%,0%);stroke-opacity:1;stroke-miterlimit:10;" d="M 528.59375 4060.622891 L 707.792969 4060.622891 " transform="matrix(0.4,0,0,-0.4,0,3163.464)"/>
<path style=" stroke:none;fill-rule:nonzero;fill:rgb(0%,0%,0%);fill-opacity:1;" d="M 292.773438 1539.214844 C 288.230469 1540.898438 282.59375 1543.78125 279.097656 1546.824219 L 281.851562 1539.214844 L 279.097656 1531.605469 C 282.59375 1534.65625 288.230469 1537.527344 292.773438 1539.214844 "/>
<path style="fill:none;stroke-width:5;stroke-linecap:butt;stroke-linejoin:miter;stroke:rgb(52.539062%,52.539062%,52.539062%);stroke-opacity:1;stroke-miterlimit:10;" d="M 528.59375 3967.292812 L 707.792969 3967.292812 " transform="matrix(0.4,0,0,-0.4,0,3163.464)"/>
<path style=" stroke:none;fill-rule:nonzero;fill:rgb(52.539062%,52.539062%,52.539062%);fill-opacity:1;" d="M 292.773438 1576.546875 C 288.230469 1578.230469 282.59375 1581.113281 279.097656 1584.15625 L 281.851562 1576.546875 L 279.097656 1568.941406 C 282.59375 1571.988281 288.230469 1574.863281 292.773438 1576.546875 "/>
<path style="fill:none;stroke-width:5;stroke-linecap:butt;stroke-linejoin:miter;stroke:rgb(52.539062%,52.539062%,52.539062%);stroke-opacity:1;stroke-miterlimit:10;" d="M 1522.666016 4481.199062 L 1765.195312 4481.199062 " transform="matrix(0.4,0,0,-0.4,0,3163.464)"/>
<path style=" stroke:none;fill-rule:nonzero;fill:rgb(52.539062%,52.539062%,52.539062%);fill-opacity:1;" d="M 715.734375 1370.984375 C 711.191406 1372.671875 705.554688 1375.546875 702.058594 1378.59375 L 704.8125 1370.984375 L 702.058594 1363.375 C 705.554688 1366.425781 711.191406 1369.300781 715.734375 1370.984375 "/>
<path style="fill:none;stroke-width:5;stroke-linecap:butt;stroke-linejoin:miter;stroke:rgb(0%,0%,0%);stroke-opacity:1;stroke-miterlimit:10;" d="M 4836.572266 5984.040859 L 4836.572266 5776.443203 " transform="matrix(0.4,0,0,-0.4,0,3163.464)"/>
<path style=" stroke:none;fill-rule:nonzero;fill:rgb(0%,0%,0%);fill-opacity:1;" d="M 1934.628906 862.546875 C 1932.941406 858.003906 1930.058594 852.367188 1927.015625 848.871094 L 1934.628906 851.625 L 1942.230469 848.871094 C 1939.183594 852.367188 1936.3125 858.003906 1934.628906 862.546875 "/>
<path style="fill:none;stroke-width:5;stroke-linecap:butt;stroke-linejoin:miter;stroke:rgb(52.539062%,52.539062%,52.539062%);stroke-opacity:1;stroke-miterlimit:10;" d="M 4836.572266 4909.206875 L 4836.572266 4711.433437 " transform="matrix(0.4,0,0,-0.4,0,3163.464)"/>
<path style=" stroke:none;fill-rule:nonzero;fill:rgb(52.539062%,52.539062%,52.539062%);fill-opacity:1;" d="M 1934.628906 1288.546875 C 1932.941406 1284.003906 1930.058594 1278.367188 1927.015625 1274.871094 L 1934.628906 1277.625 L 1942.230469 1274.871094 C 1939.183594 1278.367188 1936.3125 1284.003906 1934.628906 1288.546875 "/>
<path style="fill:none;stroke-width:5;stroke-linecap:butt;stroke-linejoin:miter;stroke:rgb(71.484375%,4.299927%,22.705078%);stroke-opacity:1;stroke-miterlimit:10;" d="M 2792.646484 6576.462734 L 2792.646484 6476.462734 L 2427.8125 6476.462734 L 2427.8125 6389.773281 " transform="matrix(0.4,0,0,-0.4,0,3163.464)"/>
<path style=" stroke:none;fill-rule:nonzero;fill:rgb(71.484375%,4.299927%,22.705078%);fill-opacity:1;" d="M 971.125 617.210938 C 969.441406 612.671875 966.558594 607.03125 963.515625 603.535156 L 971.125 606.289062 L 978.734375 603.535156 C 975.683594 607.03125 972.808594 612.671875 971.125 617.210938 "/>
<path style="fill:none;stroke-width:5;stroke-linecap:butt;stroke-linejoin:miter;stroke:rgb(71.484375%,4.299927%,22.705078%);stroke-opacity:1;stroke-miterlimit:10;" d="M 2509.335938 6476.462734 L 1190.166016 6476.462734 L 1190.166016 6395.603359 " transform="matrix(0.4,0,0,-0.4,0,3163.464)"/>
<path style=" stroke:none;fill-rule:nonzero;fill:rgb(71.484375%,4.299927%,22.705078%);fill-opacity:1;" d="M 476.070312 614.878906 C 474.386719 610.335938 471.507812 604.699219 468.464844 601.203125 L 476.070312 603.957031 L 483.679688 601.203125 C 480.632812 604.699219 477.757812 610.335938 476.070312 614.878906 "/>
<path style="fill:none;stroke-width:5;stroke-linecap:butt;stroke-linejoin:miter;stroke:rgb(0%,0%,0%);stroke-opacity:1;stroke-miterlimit:10;" d="M 3511.005859 7035.632656 L 3511.005859 6938.464687 L 3061.835938 6938.464687 L 3061.835938 6864.021328 " transform="matrix(0.4,0,0,-0.4,0,3163.464)"/>
<path style=" stroke:none;fill-rule:nonzero;fill:rgb(0%,0%,0%);fill-opacity:1;" d="M 1224.734375 427.511719 C 1223.050781 422.96875 1220.171875 417.332031 1217.128906 413.835938 L 1224.734375 416.589844 L 1232.34375 413.835938 C 1229.296875 417.332031 1226.421875 422.96875 1224.734375 427.511719 "/>
<path style="fill:none;stroke-width:5;stroke-linecap:butt;stroke-linejoin:miter;stroke:rgb(71.484375%,4.299927%,22.705078%);stroke-opacity:1;stroke-miterlimit:10;" d="M 3063.505859 6576.462734 L 3063.505859 6476.462734 L 3695.175781 6476.462734 L 3695.175781 6396.433437 " transform="matrix(0.4,0,0,-0.4,0,3163.464)"/>
<path style=" stroke:none;fill-rule:nonzero;fill:rgb(71.484375%,4.299927%,22.705078%);fill-opacity:1;" d="M 1478.066406 614.542969 C 1476.382812 610 1473.503906 604.363281 1470.464844 600.871094 L 1478.066406 603.621094 L 1485.675781 600.871094 C 1482.632812 604.363281 1479.753906 610 1478.066406 614.542969 "/>
<path style="fill:none;stroke-width:5;stroke-linecap:butt;stroke-linejoin:miter;stroke:rgb(71.484375%,4.299927%,22.705078%);stroke-opacity:1;stroke-miterlimit:10;" d="M 2341.171875 7039.802578 L 2341.171875 6939.802578 L 2790.166016 6939.802578 L 2790.166016 6863.943203 " transform="matrix(0.4,0,0,-0.4,0,3163.464)"/>
<path style=" stroke:none;fill-rule:nonzero;fill:rgb(71.484375%,4.299927%,22.705078%);fill-opacity:1;" d="M 1116.066406 427.542969 C 1114.382812 423 1111.503906 417.363281 1108.460938 413.871094 L 1116.066406 416.621094 L 1123.675781 413.871094 C 1120.628906 417.363281 1117.753906 423 1116.066406 427.542969 "/>
</g>
</svg>
